# File created by Blade
# Date/Time:  Thu Sep 25 18:58:07 2014
# Frame Rate: 120.000 fps
#------------------------------------------------------
:FULLY-SPECIFIED
:DEGREES
1855
root 1.546395 32.813430 0.192609 7.771190 3.188821 -0.010351
Spine -10.856605 4.374621 -2.457381
Head -4.307076 -8.867336 16.032312
LeftShoulder 16.760445 -1.473544 11.911536
LeftArm 98.965085 50.177184 -16.017815
LeftForeArm 6.834554 -0.000000 16.586989
LeftHand -23.630770 0.000000 -13.573391
LeftHandThumb1 -26.253704 0.000000 33.147579
RightShoulder 4.726382 25.940027 -7.385949
RightArm 43.088835 -60.835431 67.648774
RightForeArm -21.068300 0.000000 11.931080
RightHand -2.055709 -0.000000 36.780792
RightHandThumb1 -24.326973 -0.000000 -32.862282
LeftUpLeg -4.166513 10.392677 3.287835
LeftLeg -3.566176 -0.000000 0.000000
LeftFoot -3.659832 -5.430285 -17.720136
LeftToeBase 8.828874 -0.000000 -0.000000
RightUpLeg -3.694896 -12.582429 -5.984387
RightLeg -0.563245 -0.000000 0.000000
RightFoot -3.689740 -1.619815 3.402838
RightToeBase -2.698208 -0.000000 0.000000
1856
root 1.548090 32.813555 0.193191 7.779375 3.185628 -0.003510
Spine -10.866512 4.348533 -2.455862
Head -4.267272 -8.834857 16.037445
LeftShoulder 16.743561 -1.445053 11.923956
LeftArm 99.105542 50.140578 -15.832362
LeftForeArm 6.741953 -0.000000 16.615356
LeftHand -23.619390 -0.000000 -13.565434
LeftHandThumb1 -26.253704 0.000000 33.147579
RightShoulder 4.767753 25.945860 -7.379458
RightArm 43.073272 -60.859051 67.655737
RightForeArm -21.076003 -0.000000 11.938179
RightHand -2.055816 -0.000000 36.849262
RightHandThumb1 -24.326973 -0.000000 -32.862282
LeftUpLeg -4.170653 10.391205 3.276998
LeftLeg -3.567407 -0.000000 0.000000
LeftFoot -3.666911 -5.425262 -17.680104
LeftToeBase 8.906216 -0.000000 -0.000000
RightUpLeg -3.701233 -12.567953 -5.996797
RightLeg -0.554905 -0.000000 0.000000
RightFoot -3.758230 -1.602457 3.530061
RightToeBase -2.470975 -0.000000 0.000000
1857
root 1.547991 32.813539 0.194933 7.777880 3.182670 -0.003487
Spine -10.868752 4.340242 -2.458766
Head -4.226827 -8.834061 16.052747
LeftShoulder 16.763678 -1.422720 11.929706
LeftArm 99.096020 50.134185 -15.833034
LeftForeArm 6.785153 -0.000000 16.613349
LeftHand -23.568997 0.000000 -13.561181
LeftHandThumb1 -26.253704 0.000000 33.147579
RightShoulder 4.791133 25.945699 -7.358018
RightArm 43.055387 -60.873260 67.665483
RightForeArm -21.161260 -0.000000 11.931233
RightHand -1.977255 -0.000000 36.952456
RightHandThumb1 -24.326973 -0.000000 -32.862282
LeftUpLeg -4.168837 10.414058 3.275252
LeftLeg -3.562463 -0.000000 0.000000
LeftFoot -3.671048 -5.443916 -17.699129
LeftToeBase 8.891340 -0.000000 -0.000000
RightUpLeg -3.694400 -12.574270 -5.993933
RightLeg -0.569165 -0.000000 0.000000
RightFoot -3.690754 -1.622522 3.403097
RightToeBase -2.703571 -0.000000 0.000000
1858
root 1.547925 32.813580 0.195672 7.779067 3.158625 -0.002983
Spine -10.869117 4.342817 -2.464503
Head -4.191962 -8.802192 16.065670
LeftShoulder 16.765376 -1.412136 11.933502
LeftArm 99.088698 50.133577 -15.834639
LeftForeArm 6.895525 -0.000000 16.611246
LeftHand -23.535935 -0.000000 -13.679385
LeftHandThumb1 -26.253704 0.000000 33.147579
RightShoulder 4.819425 25.978846 -7.338596
RightArm 43.055278 -60.947460 67.642971
RightForeArm -21.166188 -0.000000 11.938959
RightHand -1.923869 -0.000000 37.074348
RightHandThumb1 -24.326973 -0.000000 -32.862282
LeftUpLeg -4.163395 10.414938 3.268655
LeftLeg -3.552100 -0.000000 0.000000
LeftFoot -3.703854 -5.397916 -17.780825
LeftToeBase 8.961892 -0.000000 -0.000000
RightUpLeg -3.699933 -12.546437 -5.996738
RightLeg -0.568237 -0.000000 0.000000
RightFoot -3.695637 -1.631358 3.424006
RightToeBase -2.653053 -0.000000 0.000000
1859
root 1.548065 32.813681 0.196988 7.778998 3.149040 -0.001239
Spine -10.869568 4.322377 -2.461575
Head -4.160318 -8.756486 16.084522
LeftShoulder 16.764836 -1.394742 11.934935
LeftArm 99.131170 50.134380 -15.761624
LeftForeArm 6.814228 -0.000000 16.636268
LeftHand -23.517985 -0.000000 -13.608160
LeftHandThumb1 -26.253704 0.000000 33.147579
RightShoulder 4.846272 25.966192 -7.327581
RightArm 43.174086 -61.012640 67.518094
RightForeArm -21.204047 0.000000 11.933207
RightHand -1.810087 -0.000000 37.105240
RightHandThumb1 -24.326973 -0.000000 -32.862282
LeftUpLeg -4.151037 10.430770 3.272091
LeftLeg -3.581671 -0.000000 0.000000
LeftFoot -3.642321 -5.428152 -17.702930
LeftToeBase 8.777170 -0.000000 -0.000000
RightUpLeg -3.701118 -12.543906 -5.997886
RightLeg -0.565930 -0.000000 0.000000
RightFoot -3.698721 -1.633913 3.396519
RightToeBase -2.699121 -0.000000 0.000000
1860
root 1.548253 32.813573 0.198717 7.779946 3.138337 0.002535
Spine -10.871440 4.316363 -2.471227
Head -4.134788 -8.755380 16.086682
LeftShoulder 16.771621 -1.377880 11.944055
LeftArm 99.173026 50.131039 -15.701606
LeftForeArm 6.770369 -0.000000 16.637270
LeftHand -23.502319 -0.000000 -13.575320
LeftHandThumb1 -26.253704 0.000000 33.147579
RightShoulder 4.849771 25.972681 -7.330510
RightArm 43.307173 -61.134998 67.355627
RightForeArm -21.062649 -0.000000 11.972454
RightHand -1.904351 -0.000000 37.126407
RightHandThumb1 -24.326973 -0.000000 -32.862282
LeftUpLeg -4.146318 10.444441 3.269549
LeftLeg -3.583414 -0.000000 0.000000
LeftFoot -3.644078 -5.450782 -17.733907
LeftToeBase 8.819938 -0.000000 -0.000000
RightUpLeg -3.699042 -12.520768 -6.004108
RightLeg -0.567288 -0.000000 0.000000
RightFoot -3.707985 -1.641803 3.407174
RightToeBase -2.657788 -0.000000 0.000000
